# xmcd
#
# Track frame offsets:
#	150
#	25165
#	55457
#	73477
#	94075
#	115172
#	130062
#	150517
#	172837
#	192892
#
# Disc length: 2826 seconds
#
# Revision: 0
# Processed by: cddbd v1.5.2PL0 Copyright (c) Steve Scherf et al.
# Submitted via: EasyCDDAExtractor 16.0.9.1
#
DISCID=820b080a
DTITLE=Tuấn Ngọc - KH41: Tình Đã Vụt Bay
DYEAR=1997
DGENRE=Pop
TTITLE0=Tuấn Ngọc - Đời Đá Vàng ©
TTITLE1=Tuấn Ngọc - Trách Chi Cơn Mưa Chiều
TTITLE2=Tuấn Ngọc - Cuộc Tình Lỡ
TTITLE3=Tuấn Ngọc - Tình Đã Vụt Bay ©
TTITLE4=Tuấn Ngọc and Thanh Lan - Dốc Mơ
TTITLE5=Tuấn Ngọc - Yêu and Mơ
TTITLE6=Tuấn Ngọc - Tình Xưa Gái Huế ©
TTITLE7=Tuấn Ngọc - Giọt Nắng Bên Thềm
TTITLE8=Thanh Lan - Nỗi Niềm
TTITLE9=Tuấn Ngọc - Bốn Mùa Thay Lá
EXTD=
EXTT0=
EXTT1=
EXTT2=
EXTT3=
EXTT4=
EXTT5=
EXTT6=
EXTT7=
EXTT8=
EXTT9=
PLAYORDER=
